<?xml version="1.0" encoding="utf-8"?>
<!-- Generator: Adobe Illustrator 25.2.1, SVG Export Plug-In . SVG Version: 6.00 Build 0)  -->
<svg version="1.1" id="Layer_1" xmlns="http://www.w3.org/2000/svg" xmlns:xlink="http://www.w3.org/1999/xlink" x="0px" y="0px"
	 viewBox="0 0 612 792" style="enable-background:new 0 0 612 792;" xml:space="preserve">
<style type="text/css">
	.st0{fill:#FFFFFF;}
	.st1{fill:#AA84BB;}
</style>
<circle class="st0" cx="185.3" cy="622.5" r="114.5"/>
<circle class="st0" cx="471.7" cy="570.8" r="109.1"/>
<circle class="st0" cx="296.3" cy="314.6" r="161.1"/>
<g>
	<path class="st1" d="M334.6,353.3c-6.3,1.2-12.1,5.3-15.3,10.9"/>
	<g>
		<path d="M333.9,350.9c-7,1.4-13.2,5.9-16.8,12c-0.7,1.1-0.3,2.8,0.9,3.4c1.2,0.6,2.7,0.3,3.4-0.9c0.4-0.7,0.8-1.3,1.3-1.9
			c0.3-0.4-0.1,0.1,0.1-0.1c0.1-0.2,0.2-0.3,0.4-0.5c0.2-0.3,0.5-0.6,0.8-0.9c0.5-0.6,1.1-1.1,1.7-1.6c0.3-0.3,0.6-0.5,0.9-0.7
			c0.3-0.3-0.1,0.1,0.1-0.1c0.2-0.1,0.3-0.2,0.5-0.3c1.2-0.9,2.6-1.6,3.9-2.2c0.3-0.1-0.3,0.1,0.2-0.1c0.2-0.1,0.4-0.1,0.5-0.2
			c0.4-0.1,0.7-0.3,1.1-0.4c0.8-0.2,1.6-0.4,2.4-0.6c1.3-0.3,2.1-1.9,1.7-3.1C336.5,351.3,335.3,350.6,333.9,350.9L333.9,350.9z"/>
	</g>
</g>
<g>
	<path class="st1" d="M301.9,358.8c0,7.5,4.4,14.9,11,18.4"/>
	<g>
		<path d="M299.4,358.8c0.1,8.4,4.8,16.5,12.2,20.6c1.2,0.7,2.7,0.3,3.4-0.9c0.7-1.1,0.3-2.8-0.9-3.4c-3-1.7-5.3-3.9-7.1-6.8
			c-1.7-2.9-2.7-6.1-2.7-9.4C304.4,355.5,299.4,355.5,299.4,358.8L299.4,358.8z"/>
	</g>
</g>
<g>
	<path class="st1" d="M363,361.6c0.3,4.3,0.6,8.6,0.9,12.9"/>
	<g>
		<path d="M360.5,361.6c0.3,4.3,0.6,8.6,0.9,12.9c0.1,1.3,1.1,2.6,2.5,2.5c1.3-0.1,2.6-1.1,2.5-2.5c-0.3-4.3-0.6-8.6-0.9-12.9
			c-0.1-1.3-1.1-2.6-2.5-2.5C361.7,359.1,360.4,360.2,360.5,361.6L360.5,361.6z"/>
	</g>
</g>
<g>
	<path class="st1" d="M362.8,378.1c0.2-1.4,2.5,0,2.3,1.5s-1.3,3.1-0.3,4.2c-0.1-1.9-0.2-3.8-0.2-5.8c-9.6,9.9-19.6,19.4-30,28.6"/>
	<g>
		<path d="M365.2,378.8c-0.2,0.3-0.5,0.6-0.7,0.9c-0.4,0.1-0.8,0.2-1.3,0.3c0.4,0-0.4-0.2-0.6-0.3c0.2,0.1,0.1,0.3,0.1,0.1
			c-0.3-1.2-0.4,0.2-0.5,0.7c-0.4,1.5-0.5,3.1,0.4,4.4c1.3,1.9,4.8,1.4,4.7-1.3c-0.1-1.9-0.2-3.8-0.2-5.8c-0.1-2.1-2.7-3.4-4.3-1.8
			c-9.6,9.9-19.6,19.4-30,28.6c-2.4,2.1,1.1,5.7,3.5,3.5c10.3-9.1,20.3-18.7,30-28.6c-1.4-0.6-2.8-1.2-4.3-1.8
			c0.1,1.9,0.2,3.8,0.2,5.8c1.6-0.4,3.1-0.8,4.7-1.3c-0.2-0.2,0.5-2.1,0.6-2.6c0.2-1.3-0.3-2.6-1.2-3.5c-1.8-1.9-5.3-1.9-6,1
			C359.7,380.6,364.5,381.9,365.2,378.8L365.2,378.8z"/>
	</g>
</g>
<g>
	<path class="st1" d="M261.5,267.2c6.4,5.8,12.6,11.9,18.6,18.1"/>
	<g>
		<path d="M259.7,269c6.4,5.8,12.6,11.9,18.6,18.1c2.2,2.3,5.8-1.2,3.5-3.5c-6-6.3-12.2-12.3-18.6-18.1c-1-0.9-2.5-1-3.5,0
			C258.8,266.4,258.7,268.1,259.7,269L259.7,269z"/>
	</g>
</g>
<g>
	<path class="st1" d="M283.8,285.7c-5.3,5.2-11,10.3-17.7,13.7c-6.7,3.4-14.5,5-21.7,3.1"/>
	<g>
		<path d="M282,283.9c-9.6,9.4-22.5,19.9-36.9,16.1c-3.1-0.8-4.4,4-1.3,4.8c7.8,2,15.9,0.5,23.1-3c7.1-3.5,13.1-8.9,18.7-14.4
			C287.8,285.2,284.3,281.6,282,283.9L282,283.9z"/>
	</g>
</g>
<g>
	<path class="st1" d="M251,304.7c-2.1,2.2-4.1,4.4-6.2,6.5"/>
	<g>
		<path d="M249.3,303c-2.1,2.2-4.1,4.4-6.2,6.5c-0.9,0.9-1,2.6,0,3.5c1,0.9,2.6,1,3.5,0c2.1-2.2,4.1-4.4,6.2-6.5
			c0.9-0.9,1-2.6,0-3.5C251.8,302.1,250.2,302,249.3,303L249.3,303z"/>
	</g>
</g>
<g>
	<path class="st1" d="M260.9,304.4c-0.5,3.4-1,6.8-1.4,10.2"/>
	<g>
		<path d="M258.4,303.7c-0.5,3.4-1,6.8-1.4,10.2c-0.1,0.7-0.1,1.3,0.3,1.9c0.3,0.5,0.9,1,1.5,1.1c1.2,0.3,2.9-0.4,3.1-1.7
			c0.5-3.4,1-6.8,1.4-10.2c0.1-0.7,0.1-1.3-0.3-1.9c-0.3-0.5-0.9-1-1.5-1.1C260.3,301.7,258.6,302.3,258.4,303.7L258.4,303.7z"/>
	</g>
</g>
<g>
	<path class="st1" d="M366.7,382c1,3.1-2.3,6.1-5.3,8.3c-8.2,6.2-16.6,12.4-26.9,16.2"/>
	<g>
		<path d="M364.3,382.7c0.6,2.3-2.9,4.6-4.4,5.7c-2.7,2-5.3,4-8.1,5.9c-5.6,3.9-11.5,7.4-17.9,9.8c-1.3,0.5-2.1,1.7-1.7,3.1
			c0.3,1.2,1.8,2.2,3.1,1.7c7.4-2.7,14.1-6.7,20.5-11.3c3.1-2.2,6.2-4.4,9.1-6.8c2.8-2.3,5.3-5.6,4.3-9.5
			C368.3,378.3,363.5,379.6,364.3,382.7L364.3,382.7z"/>
	</g>
</g>
<g>
	<path class="st1" d="M102.8,373.7c-3.6-1.5-7.3-3-11.1-3.3s-8.1,0.8-10.5,3.9c-2.5,3.1-2.8,7.5-1.6,11.3c1.1,3.8,3.5,7.1,5.7,10.3
		c4.6,6.5,9.5,13.3,16.7,16.8c5.1,2.4,10.9,3,15.9,5.6c6.9,3.6,12.8,11,20.5,10c5-0.6,9.1-5.4,9-10.4"/>
	<g>
		<path d="M103.4,371.3c-4.5-1.9-9.4-3.9-14.4-3.4c-4.5,0.4-9.1,2.6-11.2,6.8c-4.6,9.3,2.3,18.4,7.6,25.6c2.6,3.6,5.4,7.2,8.9,10.1
			c3.6,3.1,7.7,5.1,12.3,6.5c4.4,1.3,8.7,2.4,12.6,4.9c3.4,2.2,6.5,4.9,10,6.8c4.3,2.2,9.1,3,13.6,0.7c4.3-2.2,7.1-6.8,7.1-11.5
			c0-3.2-5-3.2-5,0c0,3.1-1.9,5.8-4.6,7.2c-2.7,1.4-5.9,0.6-8.5-0.7c-3.2-1.7-6-4-9-6.1c-3.4-2.3-7.1-3.8-11.1-5
			c-3.9-1.1-7.8-2.1-11.2-4.4c-3.2-2.1-5.9-4.9-8.3-7.9c-2.5-3.1-4.9-6.4-7-9.7c-2.2-3.3-4-6.9-3.8-10.9c0.2-4.1,3.1-6.6,7-7.4
			c4.7-0.9,9.5,1.3,13.8,3.1c1.2,0.5,2.7-0.6,3.1-1.7C105.6,372.9,104.7,371.8,103.4,371.3L103.4,371.3z"/>
	</g>
</g>
<g>
	<path class="st1" d="M120.4,393.2c2-0.6,3.7,1.7,3.8,3.7c0.1,2-0.7,4-0.7,6.1c0.1,4.6,4.4,7.9,8.2,10.5c0.6-0.6,1.2-1.1,1.8-1.7"/>
	<g>
		<path d="M121.1,395.6C120.8,395.7,121.3,395.7,121.1,395.6C120.6,395.4,121.2,395.7,121.1,395.6c0.1,0.1,0.3,0.3,0.4,0.6
			c0.1,0.2,0,0,0.1,0.3c0,0,0.1,0.8,0.1,0.4c0,0.5,0,1-0.1,1.5c-0.3,2.6-1,4.9-0.1,7.5c1.4,4.4,5.3,7.3,9,9.7c0.9,0.6,2.2,0.3,3-0.4
			c0.6-0.6,1.2-1.1,1.8-1.7c2.4-2.2-1.2-5.7-3.5-3.5c-0.6,0.6-1.2,1.1-1.8,1.7c1-0.1,2-0.3,3-0.4c-1.8-1.2-3.5-2.4-5-4.1
			c-1.3-1.5-2.1-3-2-5c0.1-2.6,1.2-5,0.2-7.6c-1.1-2.7-3.5-4.5-6.5-3.9c-1.3,0.3-2.1,1.8-1.7,3.1
			C118.4,395.2,119.8,395.9,121.1,395.6L121.1,395.6z"/>
	</g>
</g>
<g>
	<path class="st1" d="M123.2,393.7c-6.1-2.8-14.2,0.3-16.8,6.4"/>
	<g>
		<path d="M124.4,391.6c-3.7-1.7-7.8-1.9-11.6-0.4c-3.7,1.4-7,4-8.6,7.7c-0.5,1.2-0.4,2.7,0.9,3.4c1.1,0.6,2.9,0.3,3.4-0.9
			c0.3-0.7,0.7-1.4,1.2-2.1c0.3-0.4-0.1,0.1,0.1-0.1c0.1-0.1,0.2-0.3,0.4-0.4c0.2-0.3,0.5-0.5,0.8-0.8c0.2-0.1,0.3-0.3,0.5-0.4
			c0.3-0.3-0.1,0.1,0.1-0.1c0.3-0.2,0.7-0.5,1-0.7c0.3-0.2,0.6-0.4,1-0.5c0.2-0.1,0.4-0.2,0.6-0.3c-0.3,0.1-0.1,0,0.1,0
			c0.7-0.3,1.5-0.5,2.2-0.6c0.2,0,0.4-0.1,0.5-0.1c0.3-0.1-0.4,0,0.1,0c0.4,0,0.8-0.1,1.2-0.1c0.4,0,0.8,0,1.2,0.1c0.3,0,0.2,0,0,0
			c0.2,0,0.4,0.1,0.6,0.1c0.4,0.1,0.7,0.2,1.1,0.3c0.2,0.1,0.4,0.1,0.6,0.2c0.5,0.2-0.3-0.2,0.2,0.1c1.2,0.6,2.7,0.4,3.4-0.9
			C126,393.9,125.7,392.2,124.4,391.6L124.4,391.6z"/>
	</g>
</g>
<g>
	<path class="st1" d="M123.7,393.7c-8.5-6.6-19.6-9.8-30.3-8.8c-1.8,4.5-0.6,10,2.9,13.4"/>
	<g>
		<path d="M125,391.6c-8.9-6.8-20.4-10.1-31.6-9.1c-1.2,0.1-2,0.7-2.4,1.8c-2,5.4-0.5,11.8,3.6,15.8c2.3,2.3,5.8-1.3,3.5-3.5
			c-2.9-2.9-3.7-7.2-2.3-11c-0.8,0.6-1.6,1.2-2.4,1.8c10.4-0.9,20.7,2.1,29,8.4c1.1,0.8,2.8,0.2,3.4-0.9
			C126.6,393.7,126.1,392.4,125,391.6L125,391.6z"/>
	</g>
</g>
<g>
	<path class="st1" d="M287.3,250.9c1.1-0.7-1.3-1.9-1.7-0.7c-0.4,1.2,0.8,2.3,1.9,3c17.3,11.7,35.2,22.4,53.7,32.1
		c15.2,8,31.3,15.6,42.3,28.9c1.6,1.9,3.1,4,3.9,6.3c1.7,5,0.1,10.7-3.1,14.9c-3.2,4.2-7.9,7-12.6,9.3c-3.2,1.5-6.7,2.9-9.1,5.6
		s-3.2,7.2-0.7,9.7"/>
	<g>
		<path d="M288.5,253.1c1.3-1,2-2.5,1.1-4.1c-0.7-1.2-2.2-1.8-3.5-1.8c-1.7,0.1-2.9,1.3-3.1,3c-0.2,1.7,0.7,3.3,2,4.4
			c2.7,2.2,5.9,4,8.8,5.9c3,1.9,6,3.9,9,5.7c11.9,7.5,24.1,14.5,36.6,21c10.8,5.7,22,11,31.7,18.6c2.3,1.8,4.6,3.8,6.7,5.9
			c2.2,2.2,4.4,4.6,6,7.2c2.9,4.9,1.6,11-1.9,15.2c-2.1,2.6-4.8,4.6-7.7,6.2c-2.9,1.7-6.1,2.9-9,4.5c-3.1,1.7-5.6,4.1-6.9,7.5
			c-1.2,3.2-0.7,6.8,1.7,9.3c2.2,2.4,5.7-1.2,3.5-3.5c-1.3-1.4-0.9-3.7,0-5.3c1.2-2.2,3.6-3.4,5.7-4.5c5.1-2.6,10.3-4.8,14.4-8.9
			c4-4,6.9-9.5,6.7-15.2c-0.2-6.2-4.2-11-8.3-15.2c-7.9-8.2-17.8-14.2-27.8-19.6c-10.8-5.8-21.8-11.4-32.4-17.5
			c-6.3-3.6-12.5-7.4-18.7-11.3c-3.1-2-6.3-4-9.4-6c-1.5-1-3-2-4.5-3c-0.5-0.3-1-0.8-1.5-1.1c0,0,0,0,0,0c-0.8,0-1.4,0.6-1.7,1.7
			c-0.5-0.1-1.1-0.5-1.1-1c0-0.4,0-0.9,0-1.3c0-0.1,0.1-0.2,0.1-0.3c0.3-0.3,0.6-0.6,0.9-0.9c-0.1,0-0.1,0.1-0.2,0.1
			c-1.1,0.8-1.6,2.2-0.9,3.4C285.7,253.2,287.5,253.9,288.5,253.1L288.5,253.1z"/>
	</g>
</g>
<g>
	<path class="st1" d="M284.6,249.4c0.5-6,0.9-12.2-1.3-17.7c-2.5-6-8-10.4-13.8-13.3c-5.9-2.9-12.2-4.6-18.3-7.1"/>
	<g>
		<path d="M287.1,249.4c0.6-7.9,0.9-16.2-3.9-22.9c-4.4-6.2-11.1-9.9-18-12.6c-4.4-1.7-9-3.2-13.4-4.9c-1.3-0.5-2.7,0.5-3.1,1.7
			c-0.4,1.4,0.5,2.6,1.7,3.1c8.4,3.4,17.9,5.4,24.9,11.5c3.1,2.7,5.4,6,6.4,10.1c1.1,4.6,0.7,9.4,0.3,14.1c-0.1,1.3,1.2,2.5,2.5,2.5
			C286,251.9,287,250.8,287.1,249.4L287.1,249.4z"/>
	</g>
</g>
<g>
	<path class="st1" d="M251.2,247.7c-0.3,2.3,0.1,4.6,1.2,6.7c-0.5-2.2-1.3-4.3-2.3-6.3c0,2.2-0.1,4.3-0.1,6.5
		c0.1-1.3,0.1-2.5,0.2-3.8c0.6,1.9,1.2,4.2-0.1,5.7c-0.4,0.5-1,0.9-1.6,1.2c-2.3,1.4-4.7,2.8-7,4.2c-8.1,4.8-16.5,10-21.1,18.2
		c-2.8,4.9-4.2,10.9-8.7,14.4"/>
	<g>
		<path d="M248.7,247.7c-0.3,2.8,0.3,5.5,1.6,7.9c1.3,2.6,5.2,0.8,4.6-1.9c-0.6-2.4-1.5-4.7-2.6-6.9c-1.2-2.3-4.6-1.1-4.7,1.3
			c0,2.2-0.1,4.3-0.1,6.5c-0.1,3.2,4.9,3.2,5,0c0.1-1.3,0.1-2.5,0.2-3.8c-1.6,0.2-3.3,0.4-4.9,0.7c0.4,1.2,1.1,2.9,0,3.7
			c-1.8,1.3-3.9,2.4-5.8,3.5c-3.5,2.1-7,4.1-10.3,6.5c-3.2,2.2-6.3,4.7-8.9,7.6c-2.7,2.9-4.7,6.2-6.3,9.8c-1.7,3.7-3.2,7.6-6.4,10.2
			c-1,0.9-0.9,2.6,0,3.5c1,1,2.5,0.9,3.5,0c3.1-2.5,4.9-6.2,6.5-9.8c1.6-3.6,3.3-7,5.9-9.9c5.5-6.2,13-10.3,20.1-14.6
			c2.1-1.3,5-2.4,6.4-4.6c1.4-2.2,0.9-5,0.1-7.3c-0.9-2.7-4.8-2.2-4.9,0.7c-0.1,1.3-0.1,2.5-0.2,3.8c1.7,0,3.3,0,5,0
			c0-2.2,0.1-4.3,0.1-6.5c-1.6,0.4-3.1,0.8-4.7,1.3c0.9,1.8,1.6,3.7,2.1,5.7c1.5-0.6,3-1.3,4.6-1.9c-0.9-1.7-1.1-3.5-0.9-5.4
			c0.2-1.3-1.3-2.5-2.5-2.5C249.7,245.2,248.9,246.4,248.7,247.7L248.7,247.7z"/>
	</g>
</g>
<g>
	<path class="st1" d="M211.3,294.6c2.3-12.5,9.2-24,19-32c2.8-2.3,5.8-4.3,8.8-6.2c3.3-2.2,6.7-4.4,10-6.6"/>
	<g>
		<path d="M213.7,295.3c1.3-7,4-13.7,8-19.6c4.2-6.3,9.7-11.2,15.9-15.4c4.2-2.8,8.5-5.6,12.7-8.4c2.7-1.8,0.2-6.1-2.5-4.3
			c-3.9,2.6-7.8,5.2-11.7,7.7c-3.6,2.4-7.1,4.9-10.2,7.8c-5.5,5.1-10,11.4-13,18.3c-1.8,4-3.1,8.2-3.9,12.5
			c-0.3,1.3,0.4,2.7,1.7,3.1C211.8,297.4,213.4,296.6,213.7,295.3L213.7,295.3z"/>
	</g>
</g>
<g>
	<path class="st1" d="M247.5,254.4c-7.2,4-14.1,8.7-20.4,13.9"/>
	<g>
		<path d="M246.3,252.2c-7.4,4.1-14.4,8.9-20.9,14.3c-1,0.9-0.9,2.6,0,3.5c1,1,2.5,0.9,3.5,0c6.2-5.1,12.9-9.7,19.9-13.6
			C251.6,255,249.1,250.6,246.3,252.2L246.3,252.2z"/>
	</g>
</g>
<g>
	<g>
		<path class="st1" d="M516.1,313.9C501,310,486,308,470,307c-14-2-27-5-39-12c-9,0-17,2-26,0c-11-3-21-10-25-20.5"/>
		<g>
			<path d="M516.8,311.5c-10-2.6-20.3-4.4-30.6-5.6c-5.2-0.6-10.5-1-15.7-1.4c-4.7-0.4-9.4-1.5-14-2.5c-4.6-1.1-9.2-2.4-13.6-4.1
				c-2.2-0.8-4.3-1.8-6.3-2.8c-1-0.5-2.1-1.1-3.1-1.6c-0.5-0.3-0.9-0.6-1.5-0.8c-0.8-0.3-1.6-0.2-2.4-0.2
				c-5.1,0.1-10.1,0.8-15.2,0.9c-4.8,0-9.2-0.7-13.6-2.4c-7.9-3.1-15.2-9-18.3-17.1c-0.5-1.3-1.7-2.1-3.1-1.7
				c-1.2,0.3-2.2,1.8-1.7,3.1c2.8,7.1,7.8,12.7,14.2,16.8c3.2,2,6.7,3.6,10.3,4.8c4.3,1.4,8.8,1.8,13.2,1.7
				c5.3-0.1,10.5-0.8,15.7-0.9c-0.4-0.1-0.8-0.2-1.3-0.3c9.6,5.6,20.3,8.9,31.2,10.9c2.7,0.5,5.4,0.9,8.1,1.3
				c3.1,0.4,6.2,0.5,9.3,0.8c5.8,0.5,11.6,1.2,17.3,2.1c6.6,1.1,13.2,2.4,19.7,4.1C518.5,317.2,519.9,312.3,516.8,311.5L516.8,311.5
				z"/>
		</g>
	</g>
	<g>
		<path class="st1" d="M373.5,274.2c-7.1-10.7-13.2-22.1-18.2-33.9c-3.5-8.2-6.5-16.9-12.8-23.2c-3.7-3.8-8.4-6.5-12.5-9.9
			c-4.1-3.4-7.8-7.7-8.7-12.9"/>
		<g>
			<path d="M375.6,272.9c-7.4-11.1-13.6-22.9-18.7-35.2c-2.3-5.6-4.5-11.3-7.8-16.3c-1.6-2.5-3.5-4.9-5.8-7
				c-2.4-2.3-5.1-4.2-7.8-6.1c-5.1-3.7-10.6-8-11.7-14.6c-0.2-1.3-1.9-2.1-3.1-1.7c-1.4,0.4-2,1.7-1.7,3.1
				c2.3,13.2,17,17.2,24.3,26.8c3.6,4.7,5.9,10.3,8.2,15.8c2.5,6.1,5.2,12.2,8.3,18.1c3.5,6.8,7.4,13.4,11.6,19.8
				C373.1,278.1,377.4,275.6,375.6,272.9L375.6,272.9z"/>
		</g>
	</g>
	<g>
		<path class="st1" d="M333.9,176.9c6.1,7.2,12.2,14.4,18.3,21.6c4.2,5,8.5,10,13.6,14c5.1,4,11.3,7.1,17.8,7.5"/>
		<g>
			<path d="M332.1,178.6c6.3,7.4,12.6,14.9,18.9,22.3c5.5,6.5,11.3,13.1,18.9,17.4c4.2,2.4,8.8,3.9,13.7,4.2
				c1.3,0.1,2.5-1.2,2.5-2.5c0-1.4-1.1-2.4-2.5-2.5c-7.8-0.6-14.7-5.1-20.2-10.4c-6.3-6.1-11.8-13.2-17.4-19.9
				c-3.4-4-6.8-8.1-10.3-12.1c-0.9-1-2.6-0.9-3.5,0C331.1,176.1,331.3,177.6,332.1,178.6L332.1,178.6z"/>
		</g>
	</g>
	<g>
		<path class="st1" d="M365.9,207.4c0.6-2.4,1.2-4.8,1.8-7.1"/>
		<g>
			<path d="M368.3,208.1c0.6-2.4,1.2-4.8,1.8-7.1c0.3-1.3-0.4-2.8-1.7-3.1c-1.3-0.3-2.7,0.4-3.1,1.7c-0.6,2.4-1.2,4.8-1.8,7.1
				c-0.3,1.3,0.4,2.8,1.7,3.1C366.5,210.1,367.9,209.5,368.3,208.1L368.3,208.1z"/>
		</g>
	</g>
	<g>
		<path class="st1" d="M364.6,193c-3.9-5.3-7.9-10.8-13.2-14.8c-3.3-2.5-7.4-4.8-8.3-8.8"/>
		<g>
			<path d="M366.7,191.7c-3.4-4.7-6.9-9.4-11.3-13.3c-2-1.7-4.1-3.2-6.2-4.8c-1.7-1.3-3.3-2.8-3.8-4.9c-0.8-3.1-5.6-1.8-4.8,1.3
				c1.4,5.4,6.4,7.8,10.4,11.1c4.5,3.7,8,8.4,11.4,13.1c0.8,1.1,2.2,1.6,3.4,0.9C366.9,194.5,367.6,192.8,366.7,191.7L366.7,191.7z"
				/>
		</g>
	</g>
	<g>
		<path class="st1" d="M337.8,164.7c-5.9,1.4-12.3,1.1-18.1-0.8"/>
		<g>
			<path d="M337.2,162.3c-5.6,1.3-11.3,1-16.8-0.8c-1.3-0.4-2.7,0.5-3.1,1.7c-0.4,1.3,0.5,2.7,1.7,3.1c6.3,2,13,2.2,19.4,0.8
				c1.3-0.3,2.1-1.8,1.7-3.1C339.9,162.7,338.5,162,337.2,162.3L337.2,162.3z"/>
		</g>
	</g>
	<g>
		<path class="st1" d="M314,164.8c-4.5,1.7-9.6,1.6-14-0.3"/>
		<g>
			<path d="M313.3,162.4c-1.1,0.4-2.2,0.7-3.3,0.9c-0.2,0-0.3,0.1-0.5,0.1c0.3,0,0.2,0-0.1,0c-0.2,0-0.5,0-0.7,0.1
				c-0.6,0-1.2,0.1-1.8,0c-0.6,0-1.1-0.1-1.7-0.1c-0.2,0-0.2,0,0.1,0c-0.2,0-0.3,0-0.5-0.1c-0.3,0-0.6-0.1-0.8-0.2
				c-1.2-0.2-2.3-0.6-3.4-1.1c-1.2-0.5-2.8,0.5-3.1,1.7c-0.3,1.5,0.4,2.5,1.7,3.1c4.8,2,10.5,2.1,15.3,0.3c1.2-0.4,2.2-1.7,1.7-3.1
				C316,163,314.6,161.9,313.3,162.4L313.3,162.4z"/>
		</g>
	</g>
	<g>
		<path class="st1" d="M311.6,153.6c11.4,2.1,23.1-4.8,34.3-2c4.4,1.1,8.3,3.7,12.2,6.2"/>
		<g>
			<path d="M310.9,156c8.2,1.4,16-1.1,24-2.2c3.7-0.5,7.5-0.6,11.2,0.5c3.9,1.2,7.3,3.5,10.7,5.7c2.7,1.8,5.2-2.5,2.5-4.3
				c-3.6-2.4-7.3-4.8-11.5-6.1c-3.8-1.2-7.9-1.3-11.9-0.9c-7.8,0.9-15.8,3.9-23.7,2.5c-1.3-0.2-2.7,0.4-3.1,1.7
				C308.9,154.2,309.6,155.8,310.9,156L310.9,156z"/>
		</g>
	</g>
	<g>
		<path class="st1" d="M366.1,160.5c7.3,3.1,14.7,6.2,21.3,10.7"/>
		<g>
			<path d="M364.8,162.7c7.3,3.1,14.6,6.2,21.3,10.7c1.1,0.8,2.8,0.2,3.4-0.9c0.7-1.2,0.2-2.7-0.9-3.4c-6.6-4.4-13.9-7.6-21.3-10.7
				c-1.2-0.5-2.7-0.4-3.4,0.9C363.3,160.3,363.5,162.1,364.8,162.7L364.8,162.7z"/>
		</g>
	</g>
	<g>
		<path class="st1" d="M394.3,170.3c-2.4,11.6,1.6,23.4,5.6,34.6c5.2,14.7,11,30.2,23.1,40c5.9,4.8,13.2,8,20.8,9.1
			c9.2,1.3,18.6-0.4,27.7-2.1c21.3-4,42.6-8,63.9-11.9"/>
		<g>
			<path d="M391.9,169.6c-2.7,13.5,2.3,26.8,6.8,39.3c4,11,8.4,22,15.9,31.1c8,9.7,19.5,15.8,32,16.8c7,0.6,13.9-0.4,20.8-1.6
				c7-1.2,13.9-2.6,20.8-3.9c15.9-3,31.9-5.9,47.8-8.9c1.3-0.2,2.1-1.9,1.7-3.1c-0.4-1.4-1.7-2-3.1-1.7c-13.7,2.5-27.3,5.1-41,7.6
				c-6.8,1.3-13.7,2.5-20.5,3.8c-6.6,1.2-13.2,2.6-19.9,2.9c-6.1,0.3-12.2-0.5-17.9-2.7c-5.3-2-10.1-5.2-14.1-9.3
				c-7.8-7.8-12.4-18.1-16.2-28.2c-2.4-6.5-4.8-13-6.7-19.6c-1.9-6.9-3-14.1-1.6-21.2c0.3-1.3-0.4-2.7-1.7-3.1
				C393.8,167.5,392.2,168.3,391.9,169.6L391.9,169.6z"/>
		</g>
	</g>
	<g>
		<path class="st1" d="M313.9,174.6c-1.8,0.3-3.7,0.5-5.5,0.1s-3.5-1.7-3.9-3.5"/>
		<g>
			<path d="M313.3,172.2c-0.1,0-0.2,0-0.4,0c0.1,0,0.5-0.1,0.1,0c-0.2,0-0.5,0.1-0.7,0.1c-0.5,0.1-1,0.1-1.5,0.1c-0.2,0-0.5,0-0.7,0
				c-0.1,0-0.2,0-0.4,0c-0.1,0-0.5-0.1-0.1,0c0.4,0.1,0,0-0.1,0c-0.1,0-0.2,0-0.3-0.1c-0.2,0-0.4-0.1-0.6-0.2c0,0-0.2-0.1-0.3-0.1
				c0,0,0.6,0.3,0.2,0.1c-0.2-0.1-0.3-0.2-0.5-0.3c-0.2-0.1-0.3-0.2-0.5-0.3c0.1,0,0.4,0.4,0.2,0.1c-0.1-0.1-0.1-0.1-0.2-0.2
				c-0.1-0.1-0.2-0.3-0.4-0.4c-0.3-0.3,0.3,0.4,0.1,0.1c0-0.1-0.1-0.1-0.1-0.2c-0.1-0.1-0.3-0.6-0.1-0.2c0.2,0.4,0-0.2-0.1-0.3
				c-0.3-1.3-1.8-2.1-3.1-1.7c-1.3,0.4-2.1,1.7-1.7,3.1c0.6,2.5,2.6,4.1,4.8,5c2.4,0.9,5.1,0.5,7.6,0.2c0.6-0.1,1.2-0.7,1.5-1.1
				c0.3-0.5,0.4-1.3,0.3-1.9c-0.2-0.6-0.6-1.2-1.1-1.5C314.6,172.1,314,172.1,313.3,172.2L313.3,172.2z"/>
		</g>
	</g>
	<g>
		<path class="st1" d="M338.4,175.9c1.2-0.7,2.6-1,4-1"/>
		<g>
			<path d="M339.6,178c0.2-0.1,0.5-0.3,0.8-0.4c-0.2,0.1-0.4,0.2-0.6,0.3c0.6-0.3,1.3-0.4,2-0.5c-0.2,0-0.4,0.1-0.7,0.1
				c0.4-0.1,0.8-0.1,1.3-0.1c0.6,0,1.3-0.3,1.8-0.7c0.4-0.4,0.8-1.1,0.7-1.8c0-0.6-0.2-1.3-0.7-1.8c-0.5-0.5-1.1-0.7-1.8-0.7
				c-1.8-0.1-3.7,0.4-5.3,1.3c-0.5,0.3-1,0.9-1.1,1.5c-0.2,0.6-0.1,1.4,0.3,1.9c0.3,0.5,0.9,1,1.5,1.1
				C338.4,178.4,339,178.3,339.6,178L339.6,178z"/>
		</g>
	</g>
	<g>
		<path class="st1" d="M343.3,181.6c1.5,0,3-0.1,4.5-0.1"/>
		<g>
			<path d="M343.3,184.1c1.5,0,3-0.1,4.5-0.1c0.7,0,1.3-0.3,1.8-0.7c0.4-0.4,0.8-1.1,0.7-1.8c0-0.6-0.2-1.3-0.7-1.8
				c-0.5-0.4-1.1-0.8-1.8-0.7c-1.5,0-3,0.1-4.5,0.1c-0.7,0-1.3,0.3-1.8,0.7c-0.4,0.4-0.8,1.1-0.7,1.8c0,0.6,0.2,1.3,0.7,1.8
				C342,183.8,342.6,184.1,343.3,184.1L343.3,184.1z"/>
		</g>
	</g>
	<g>
		<path class="st1" d="M319.4,186.4c1.2,2.2,3.2,4.2,5.7,4.4c2.5,0.2,5.2-1.9,4.9-4.4"/>
		<g>
			<path d="M317.3,187.6c1.6,3,4.7,5.7,8.3,5.7c3.6-0.1,7.3-3.1,7-6.9c-0.1-1.3-1.1-2.6-2.5-2.5c-1.2,0.1-2.6,1.1-2.5,2.5
				c0,0.1,0,0.3,0,0.4c0,0.1,0,0.1,0,0.2c0,0.2,0,0.1,0-0.3c-0.1,0.1-0.1,0.2-0.1,0.3c-0.1,0.5,0.2-0.3,0.1-0.1
				c-0.1,0.1-0.1,0.2-0.2,0.3c-0.2,0.3-0.3,0.3,0.1,0c-0.2,0.2-0.4,0.4-0.5,0.6c-0.3,0.3,0-0.1,0.1-0.1c-0.1,0-0.3,0.2-0.4,0.2
				c-0.1,0.1-0.3,0.1-0.4,0.2c-0.4,0.2,0.5-0.2,0.1,0c-0.2,0-0.6,0.1-0.7,0.2c0.4,0,0.5-0.1,0.2,0c0,0-0.1,0-0.1,0
				c-0.1,0-0.3,0-0.4,0c-0.1,0-0.5,0-0.1,0c0.4,0-0.1,0-0.2-0.1c-0.1,0-0.2-0.1-0.4-0.1c-0.2-0.1-0.5-0.3,0,0
				c-0.2-0.1-0.5-0.2-0.8-0.4c-0.1-0.1-0.3-0.2-0.4-0.3c-0.3-0.2-0.1-0.1,0.1,0.1c-0.2-0.2-0.5-0.4-0.7-0.6
				c-0.2-0.2-0.4-0.4-0.5-0.6c-0.3-0.4,0.3,0.4,0,0c-0.1-0.1-0.2-0.3-0.3-0.4c-0.2-0.3-0.3-0.5-0.5-0.8c-0.6-1.2-2.3-1.6-3.4-0.9
				C317,185,316.6,186.4,317.3,187.6L317.3,187.6z"/>
		</g>
	</g>
	<g>
		<path class="st1" d="M333.6,184.7c-1.9-4.2-5-7.9-8.8-10.4"/>
		<g>
			<path d="M335.8,183.5c-2-4.6-5.5-8.5-9.7-11.3c-1.1-0.7-2.8-0.3-3.4,0.9c-0.7,1.2-0.3,2.7,0.9,3.4c0.5,0.3,0.9,0.6,1.4,1
				c0.5,0.3-0.4-0.4,0,0c0.1,0.1,0.2,0.1,0.3,0.2c0.2,0.2,0.4,0.4,0.6,0.5c0.9,0.8,1.7,1.6,2.4,2.4c0.2,0.2,0.4,0.4,0.5,0.6
				c0.2,0.3-0.4-0.5,0,0c0.1,0.1,0.2,0.2,0.2,0.3c0.3,0.4,0.6,0.9,0.9,1.4c0.6,1,1.1,2,1.6,3c0.5,1.2,2.4,1.6,3.4,0.9
				C336.1,186.1,336.3,184.8,335.8,183.5L335.8,183.5z"/>
		</g>
	</g>
	<g>
		<path class="st1" d="M324.3,173.5c-3.8-0.4-7.6,3.2-7.3,7.1"/>
		<g>
			<path d="M324.3,171c-2.6-0.2-5.2,0.9-7,2.7c-1.8,1.8-3,4.3-2.9,6.9c0.1,1.3,1.1,2.6,2.5,2.5c1.3-0.1,2.6-1.1,2.5-2.5
				c0-0.4,0-0.8,0-1.1c0,0.2-0.1,0.4-0.1,0.7c0.1-0.6,0.2-1.1,0.5-1.7c-0.1,0.2-0.2,0.4-0.3,0.6c0.2-0.5,0.5-1,0.9-1.5
				c-0.1,0.2-0.3,0.3-0.4,0.5c0.4-0.5,0.9-1,1.4-1.4c-0.2,0.1-0.3,0.3-0.5,0.4c0.5-0.4,1-0.7,1.6-0.9c-0.2,0.1-0.4,0.2-0.6,0.3
				c0.5-0.2,1.1-0.4,1.7-0.5c-0.2,0-0.4,0.1-0.7,0.1c0.4-0.1,0.9-0.1,1.3,0c0.6,0.1,1.4-0.3,1.8-0.7c0.4-0.4,0.8-1.1,0.7-1.8
				c0-0.6-0.2-1.3-0.7-1.8C325.6,171.3,325,171.1,324.3,171L324.3,171z"/>
		</g>
	</g>
	<g>
		<path class="st1" d="M300.1,156.8c-1.8,0-3.5,1.3-3.8,3.1c3-0.6,5.9-1.5,8.7-2.6"/>
		<g>
			<path d="M300.1,154.3c-2.9,0-5.6,2.1-6.2,4.9c-0.2,0.9,0,1.8,0.6,2.4c0.7,0.7,1.5,0.8,2.4,0.6c3-0.6,5.9-1.5,8.7-2.6
				c0.6-0.3,1.1-0.5,1.5-1.1c0.3-0.5,0.4-1.3,0.3-1.9c-0.2-0.6-0.6-1.2-1.1-1.5c-0.6-0.3-1.3-0.5-1.9-0.3c-2.8,1.1-5.7,2-8.7,2.6
				c1,1,2.1,2.1,3.1,3.1c0-0.2,0.1-0.4,0.2-0.5c0.1-0.3-0.3,0.5-0.1,0.3c0-0.1,0.1-0.1,0.1-0.2c0.1-0.1,0.1-0.2,0.2-0.3
				c0.2-0.3-0.1,0.2-0.2,0.2c0,0,0.4-0.4,0.4-0.4c0.4-0.3-0.4,0.3,0,0c0.2-0.1,0.3-0.2,0.5-0.3c0.3-0.2-0.2,0.1-0.3,0.1
				c0,0,0.2-0.1,0.2-0.1c0.2-0.1,0.4-0.1,0.6-0.1c-0.2,0-0.4,0.1-0.7,0.1c0.2,0,0.3,0,0.5,0c1.3,0,2.6-1.1,2.5-2.5
				C302.5,155.4,301.5,154.3,300.1,154.3L300.1,154.3z"/>
		</g>
	</g>
	<g>
		<path class="st1" d="M293.7,154.5c-1.2-2.3-1.2-5.3,0.1-7.6"/>
		<g>
			<path d="M295.8,153.2c-0.1-0.2-0.2-0.4-0.3-0.6C295.7,152.8,295.7,153,295.8,153.2c-0.3-0.6-0.5-1.3-0.6-2.1
				c0,0.2,0.1,0.4,0.1,0.7c-0.1-0.7-0.1-1.4,0-2.1c0,0.2-0.1,0.4-0.1,0.7c0.1-0.7,0.3-1.4,0.6-2.1c-0.1,0.2-0.2,0.4-0.3,0.6
				c0.1-0.2,0.2-0.4,0.3-0.7c0.6-1.2,0.3-2.8-0.9-3.4c-1.2-0.6-2.8-0.3-3.4,0.9c-1.7,3.1-1.7,6.9-0.1,10.1c0.6,1.2,2.3,1.6,3.4,0.9
				C296.1,155.9,296.5,154.4,295.8,153.2L295.8,153.2z"/>
		</g>
	</g>
	<g>
		<path class="st1" d="M294.3,144.5c2.2,0.5,4.4,1.1,6.6,1.6"/>
		<g>
			<path d="M293.6,146.9c2.2,0.5,4.4,1.1,6.6,1.6c0.6,0.2,1.4,0.1,1.9-0.3c0.5-0.3,1-0.9,1.1-1.5c0.3-1.3-0.4-2.7-1.7-3.1
				c-2.2-0.5-4.4-1.1-6.6-1.6c-0.6-0.2-1.4-0.1-1.9,0.3c-0.5,0.3-1,0.9-1.1,1.5C291.6,145.1,292.2,146.6,293.6,146.9L293.6,146.9z"
				/>
		</g>
	</g>
	<g>
		<path class="st1" d="M310.6,146.9c6.4,1.8,13.3,0,19.9-0.8c6.6-0.8,14.3-0.3,18.6,4.8"/>
		<g>
			<path d="M309.9,149.3c7.4,2,14.7-0.2,22.2-0.9c5.4-0.5,11.5-0.1,15.2,4.3c0.9,1,2.6,0.9,3.5,0c1-1,0.9-2.5,0-3.5
				c-4.3-4.9-11.1-6.1-17.3-5.8c-7.4,0.4-14.9,3.1-22.3,1.1C308.1,143.7,306.8,148.5,309.9,149.3L309.9,149.3z"/>
		</g>
	</g>
</g>
<g>
	<g>
		<path class="st1" d="M544,577.8c-5.9-5.3-11.9-10.5-17.8-15.8c-14.3-12.7-28.6-25.4-42.2-38.9c-3.9-3.9-8.1-8-13.4-9.5"/>
		<g>
			<path d="M545.8,576c-19.9-17.6-40.1-35-59-53.6c-4.6-4.5-9.2-9.3-15.6-11.1c-3.1-0.9-4.4,3.9-1.3,4.8c5.2,1.5,9,5.5,12.7,9.2
				c4.6,4.6,9.3,9,14.1,13.4c9.5,8.8,19.2,17.4,28.9,26.1c5.6,4.9,11.1,9.9,16.7,14.8C544.6,581.7,548.2,578.2,545.8,576L545.8,576z
				"/>
		</g>
	</g>
	<g>
		<path class="st1" d="M462.4,508c-14.3-2.9-29.6-5.7-43.3-0.3c-4.9,1.9-9.4,4.8-14.1,7.2c-25,12.5-55.1,9.2-80.9,20"/>
		<g>
			<path d="M463.1,505.6c-9.5-1.9-19.2-3.8-29-3.4c-4.9,0.2-9.8,1-14.4,2.6c-4.6,1.6-8.9,4.1-13.2,6.5c-16.4,8.9-34.9,10.6-53,13.5
				c-10.3,1.6-20.5,3.7-30.1,7.8c-1.2,0.5-2.1,1.7-1.7,3.1c0.3,1.2,1.8,2.3,3.1,1.7c16.9-7,35.4-8.1,53.2-11.4
				c9-1.7,17.9-4,26.2-7.8c4.3-2,8.3-4.5,12.5-6.6c4.2-2,8.6-3.4,13.2-4c10.7-1.3,21.4,0.8,31.9,2.9c1.3,0.3,2.7-0.4,3.1-1.7
				C465.2,507.5,464.4,505.9,463.1,505.6L463.1,505.6z"/>
		</g>
	</g>
	<g>
		<path class="st1" d="M323.8,553.1c8.6,0.7,17.4,0.9,25.7-1.6c2.8-0.8,5.4-1.9,8.2-2.7c9.5-2.8,19.9-2.2,28.8,1.6"/>
		<g>
			<path d="M323.8,555.6c8.5,0.7,17.2,0.8,25.5-1.4c4-1.1,7.8-2.8,11.9-3.7c3.8-0.9,7.7-1.1,11.6-0.9c4.3,0.3,8.5,1.3,12.5,3
				c1.2,0.5,2.7,0.4,3.4-0.9c0.6-1.1,0.4-2.9-0.9-3.4c-7.7-3.3-16.1-4.4-24.4-3.2c-4.2,0.6-8.1,2-12.2,3.4
				c-4.1,1.4-8.2,2.2-12.5,2.5c-4.9,0.3-9.9,0.1-14.8-0.3c-1.3-0.1-2.5,1.2-2.5,2.5C321.3,554.6,322.5,555.5,323.8,555.6
				L323.8,555.6z"/>
		</g>
	</g>
	<g>
		<path class="st1" d="M314.9,538c-11.2-3.3-22.8-5.2-34.5-5.5c-5.2-0.1-11.5,0.7-13.9,5.3"/>
		<g>
			<path d="M315.5,535.6c-9.6-2.9-19.5-4.6-29.5-5.3c-7.3-0.5-17.6-1.2-21.8,6.3c-1.6,2.8,2.8,5.3,4.3,2.5c1.4-2.6,4.2-3.5,7-3.9
				c3.9-0.6,8-0.2,11.9,0.1c9.1,0.7,18,2.4,26.7,5C317.3,541.4,318.6,536.5,315.5,535.6L315.5,535.6z"/>
		</g>
	</g>
	<g>
		<path class="st1" d="M262.7,546.2c6.5,4.3,14.9,4.4,22.7,5.9c7.4,1.4,14.5,4.2,20.7,8.3"/>
		<g>
			<path d="M261.5,548.4c6.5,4.2,14.3,4.6,21.6,5.8c7.8,1.3,15.1,4.1,21.8,8.3c2.7,1.7,5.2-2.6,2.5-4.3c-6.7-4.3-14.3-7.3-22.2-8.7
				c-7.2-1.3-15-1.4-21.3-5.5C261.3,542.3,258.8,546.6,261.5,548.4L261.5,548.4z"/>
		</g>
	</g>
	<g>
		<path class="st1" d="M316.2,559c12.4,4.2,24.8,8.4,37.3,12.6"/>
		<g>
			<path d="M315.5,561.4c12.4,4.2,24.8,8.4,37.3,12.6c3.1,1,4.4-3.8,1.3-4.8c-12.4-4.2-24.8-8.4-37.3-12.6
				C313.8,555.6,312.5,560.4,315.5,561.4L315.5,561.4z"/>
		</g>
	</g>
	<g>
		<path class="st1" d="M353.5,570.8c12.8-2.8,25.7-5.6,38.5-8.4"/>
		<g>
			<path d="M354.2,573.2c12.8-2.8,25.7-5.6,38.5-8.4c3.1-0.7,1.8-5.5-1.3-4.8c-12.8,2.8-25.7,5.6-38.5,8.4
				C349.7,569.1,351.1,573.9,354.2,573.2L354.2,573.2z"/>
		</g>
	</g>
	<g>
		<path class="st1" d="M407.4,560.2c5.3-5,13.5-4.7,20.6-4.1c4.3,0.3,8.7,0.7,12.6,2.5c4.9,2.3,8.5,6.7,11.9,10.9
			c5.1,6.4,10.2,12.8,15.3,19.2"/>
		<g>
			<path d="M409.2,562c2.9-2.6,6.9-3.5,10.7-3.7c4.4-0.2,9,0.1,13.3,0.8c2.3,0.4,4.7,0.9,6.8,1.9c1.9,1,3.6,2.3,5.2,3.8
				c3.5,3.4,6.3,7.3,9.3,11.1c3.9,4.9,7.7,9.7,11.6,14.6c0.8,1.1,2.7,0.9,3.5,0c1-1,0.8-2.5,0-3.5c-3.7-4.6-7.3-9.2-11-13.8
				c-3.2-4.1-6.3-8.4-10.1-12c-3.8-3.7-8.3-6-13.5-6.8c-4.8-0.8-9.8-1.2-14.7-1.1c-5.3,0.2-10.6,1.5-14.6,5.2
				C403.3,560.6,406.8,564.2,409.2,562L409.2,562z"/>
		</g>
	</g>
	<g>
		<path class="st1" d="M303.5,528.9c-5.7-9-18.2-10.1-27.2-15.9"/>
		<g>
			<path d="M305.7,527.6c-6.4-9.8-18.8-10.9-28.1-16.8c-2.7-1.7-5.2,2.6-2.5,4.3c4.6,2.9,9.7,4.5,14.6,6.6c4.4,1.9,9,4.2,11.6,8.3
				C303.1,532.8,307.4,530.3,305.7,527.6L305.7,527.6z"/>
		</g>
	</g>
	<g>
		<path class="st1" d="M277.9,504.7c4.3-3.7,10.7-2.7,15.9-0.9c8.8,3,16.9,7.6,23.9,13.6c4.3,3.7,8.4,8,13.9,9.6"/>
		<g>
			<path d="M279.7,506.5c2.4-2,6-2,8.9-1.5c3.7,0.7,7.4,2.1,10.8,3.7c3.8,1.7,7.5,3.8,10.9,6.1c3.3,2.2,6.2,4.8,9.2,7.4
				c3.4,3,7.1,5.8,11.5,7.1c3.1,0.9,4.4-3.9,1.3-4.8c-3.8-1.2-6.8-3.7-9.7-6.2c-3.3-2.9-6.6-5.7-10.3-8.1c-3.6-2.4-7.4-4.5-11.4-6.2
				c-3.8-1.7-7.8-3.3-11.9-3.9c-4.6-0.7-9.1-0.1-12.8,2.9c-1,0.9-0.9,2.6,0,3.5C277.2,507.5,278.6,507.3,279.7,506.5L279.7,506.5z"
				/>
		</g>
	</g>
	<g>
		<path class="st1" d="M329.2,503.8c8.3-3.6,17.6,0.4,25.2,4.9c7.6,4.5,15.6,9.8,24.6,8.9"/>
		<g>
			<path d="M329.9,506.2c8.3-3.5,17.1,0.9,24.2,5.2c7.6,4.5,15.7,9.6,24.9,8.7c1.3-0.1,2.5-1.1,2.5-2.5c0-1.3-1.1-2.6-2.5-2.5
				c-9.1,0.9-16.8-4.8-24.2-9.1c-7.7-4.5-17.4-8.3-26.2-4.6c-1.2,0.5-2.1,1.7-1.7,3.1C327.1,505.6,328.6,506.7,329.9,506.2
				L329.9,506.2z"/>
		</g>
	</g>
	<g>
		<path class="st1" d="M299.3,500.1c4.2-3.8,10.8-2.1,16-0.1c5.8,2.2,11.7,4.5,16.8,7.9c4.2,2.8,7.8,6.2,12,9s9,5,14.1,4.7"/>
		<g>
			<path d="M301.1,501.9c2.5-2.2,6.1-1.7,9.1-0.9c3.9,1,7.8,2.7,11.5,4.3c4.2,1.8,8.2,4,11.8,6.7c3.5,2.7,6.9,5.7,10.6,8
				c4.2,2.6,9,4.4,14.1,4.2c3.2-0.1,3.2-5.1,0-5c-9.3,0.4-16.1-7.2-23.1-12.2c-3.8-2.8-8.1-4.9-12.5-6.7c-3.9-1.6-7.9-3.4-12-4.4
				c-4.6-1-9.3-0.8-13,2.4c-1,0.9-0.9,2.6,0,3.5C298.6,502.9,300.1,502.7,301.1,501.9L301.1,501.9z"/>
		</g>
	</g>
</g>
<g>
	<path class="st1" d="M362.6,393.3c2.5-0.5,5,0.9,6.5,2.9c1.5,2,2.1,4.6,2.4,7c0.2,1.7,0.4,3.5-0.2,5.2c-0.6,1.6-2.1,3.1-3.8,3.1"/>
	<g>
		<path d="M363.3,395.7c-0.3,0.1,0.2,0,0.3,0c0.2,0,0.5,0,0.7,0c-0.3,0,0.7,0.2,0.6,0.2c0.6,0.2,1.2,0.6,1.6,1.1
			c1.1,1.1,1.7,2.7,2.1,4.4c0.4,1.7,0.8,3.6,0.5,5.5c0,0.2-0.2,0.8-0.2,0.9c0-0.1-0.5,0.8-0.3,0.6c-0.1,0.2-0.3,0.3-0.5,0.5
			c-0.3,0.3,0.4-0.2-0.2,0.2c-0.1,0.1-0.3,0.2-0.1,0.1c-0.1,0-0.7,0.1-0.3,0.1c-1.3,0.1-2.5,1.1-2.5,2.5c0,1.3,1.1,2.6,2.5,2.5
			c3-0.2,5.3-2.2,6.2-5c1-2.8,0.4-6-0.2-8.8c-0.6-2.6-1.7-5.2-3.7-7.1c-2.2-2-5-2.9-7.9-2.4c-1.3,0.3-2.1,1.8-1.7,3.1
			C360.6,395.4,361.9,396,363.3,395.7L363.3,395.7z"/>
	</g>
</g>
<g>
	<path class="st1" d="M367.6,412.2c-4.3,7.9,5.3,16.4,5.9,25.4c0.5,6.6-4.2,12.6-10,15.8s-12.5,4-19,4.8
		c-29.5,3.5-58.9,7.1-88.4,10.6c-9.5,1.1-19.1,2.3-28.5,0.7c-8-1.3-15.6-4.6-23.1-7.9c-14.9-6.5-29.9-13-44.8-19.5"/>
	<g>
		<path d="M365.5,411c-3.3,6.3,0,12.6,2.8,18.4c1.3,2.7,2.7,5.6,2.8,8.6c0.1,3.1-1.1,6.1-3.1,8.5c-4.8,5.9-12.6,7.7-19.8,8.7
			c-8.7,1.2-17.5,2.1-26.2,3.2c-18,2.2-36,4.3-54.1,6.5c-8.8,1.1-17.7,2.4-26.6,2.8c-4.4,0.2-8.8,0.1-13.1-0.6
			c-4.1-0.7-8.1-1.9-12-3.3c-8.2-3-16.2-6.8-24.2-10.3c-8.3-3.6-16.6-7.2-24.9-10.8c-2.1-0.9-4.1-1.8-6.2-2.7
			c-1.2-0.5-2.7-0.4-3.4,0.9c-0.6,1.1-0.3,2.9,0.9,3.4c16.9,7.3,33.7,14.9,50.7,22c8.2,3.4,16.5,6,25.4,6.4c9,0.4,18-1,26.9-2.1
			c18.4-2.2,36.9-4.4,55.3-6.6c9.1-1.1,18.3-2.2,27.4-3.3c8-1,16.6-1.9,23.2-6.9c6-4.5,9.8-11.5,8.2-19.1c-0.7-3.3-2.3-6.4-3.7-9.4
			c-1.2-2.6-2.7-5.5-2.8-8.3c-0.1-1.3,0.1-2.4,0.8-3.6C371.3,410.7,367,408.1,365.5,411L365.5,411z"/>
	</g>
</g>
<g>
	<path class="st1" d="M363.2,382.9c-2.9,4.5-6.3,8.6-10.2,12.2"/>
	<g>
		<path d="M361,381.6c-0.7,1.1-1.4,2.1-2.2,3.2c-0.2,0.3-0.4,0.5-0.6,0.8c-0.1,0.2-0.3,0.4-0.1,0.1c-0.1,0.1-0.2,0.2-0.3,0.3
			c-0.4,0.5-0.9,1.1-1.3,1.6c-1.7,2-3.5,3.9-5.4,5.7c-1,0.9-1,2.6,0,3.5c1,0.9,2.5,1,3.5,0c4.1-3.8,7.6-8,10.6-12.7
			c0.7-1.1,0.3-2.8-0.9-3.4C363.2,380.1,361.8,380.5,361,381.6L361,381.6z"/>
	</g>
</g>
<g>
	<path class="st1" d="M364.6,379c0.2-0.9-0.1-2.4-1-2.1c-0.2,0.1-0.4,0.3-0.6,0.5c-3.5,4.7-6.6,9.7-9.3,14.9"/>
	<g>
		<path d="M367,379.7c0.5-2.4-0.6-5.7-3.5-5.3c-1.5,0.2-2.2,1.3-3.1,2.4c-0.7,0.9-1.3,1.8-2,2.8c-2.5,3.7-4.8,7.5-6.8,11.5
			c-0.6,1.2-0.4,2.8,0.9,3.4c1.1,0.6,2.8,0.4,3.4-0.9c1.5-3,3.2-6,5-8.9c0.9-1.4,1.8-2.8,2.8-4.1c0.2-0.3,0.5-0.7,0.8-1
			c0.1-0.2,0.3-0.4,0.4-0.6c0.1-0.1,0.1-0.2,0-0.1c-0.1,0.1-0.1,0.1,0,0c0.4-0.4,0-0.4-1.2-0.1c-0.7,0.3-1.2,0.2-1.5-0.3
			c-0.1-0.1-0.2-0.5-0.1-0.1c0-0.1-0.1-0.5,0-0.1c0.1,0.5,0.1-0.4,0,0c-0.3,1.3,0.4,2.8,1.7,3.1C365.2,381.7,366.7,381,367,379.7
			L367,379.7z"/>
	</g>
</g>
<g>
	<path class="st1" d="M221,209.6c-28.8,9.8-46.5,38.2-61.1,64.9c-14.6,26.7-30.3,55.7-57.8,68.6"/>
	<g>
		<path d="M214.4,185.5c-4,1.4-8,3.1-11.9,4.9c-2.1,0.9-4.1,2-6.1,3.1c-5.5,3.2-10.7,7.2-15.6,11.2c-8.6,7.1-15.5,15.7-22.2,24.5
			c-11.1,14.8-19.3,31.4-28.5,47.4c-5.2,9.1-10.7,18-17.1,26.3c1.3-1.7,2.6-3.4,3.9-5.1c-5.5,7-11.6,13.5-18.6,19
			c1.7-1.3,3.4-2.6,5.1-3.9c-4.4,3.4-9.1,6.3-14,8.6c-2.9,1.6-5.3,3.7-7,6.4c-2.2,2.4-3.7,5.2-4.5,8.5c-1,3.3-1.2,6.6-0.4,10
			c0.2,3.3,1.1,6.4,3,9.3c1.3,1.7,2.6,3.4,3.9,5.1c3.1,3.1,6.8,5.2,11,6.4c2.2,0.3,4.4,0.6,6.6,0.9c4.5,0,8.7-1.2,12.6-3.4
			c3.9-1.8,7.5-4,11-6.4c5.1-3.6,10-7.4,14.6-11.7c7.7-7.2,14.3-15.7,20.3-24.3c10-14.2,17.7-29.9,26.4-44.9
			c4.9-8.5,10.1-16.7,16.1-24.5c-1.3,1.7-2.6,3.4-3.9,5.1c5.6-7.2,11.8-13.9,19-19.4c-1.7,1.3-3.4,2.6-5.1,3.9
			c5.1-3.9,10.5-7.2,16.4-9.7c-2,0.8-4,1.7-6,2.5c1.4-0.6,2.8-1.1,4.2-1.6c3.3-0.8,6.1-2.3,8.5-4.5c2.7-1.8,4.9-4.1,6.4-7
			c1.8-2.9,2.8-6,3-9.3c0.7-3.3,0.6-6.6-0.4-10c-0.8-2-1.7-4-2.5-6c-2.2-3.8-5.2-6.7-9-9c-2-0.8-4-1.7-6-2.5
			C223.2,184.3,218.8,184.3,214.4,185.5L214.4,185.5z"/>
	</g>
</g>
<g>
	<g>
		<path d="M235,186c-4.6-1.8-9.4-3.1-14.3-3.9c-6.9-1.1-13.9-2-20.9-1.8c-7,0.2-14,1.2-20.8,2.6c-4.9,1-9.6,2.5-14.2,4.4
			c-6.5,2.7-12.8,5.4-18.6,9.2c-5.8,3.7-11.3,8-16.3,12.7c-9.1,8.7-16.3,19.5-21.4,31.1c-6.2,14-10.5,28.8-16.5,42.9
			c0.8-2,1.7-4,2.5-6c-3.1,7.3-6.8,14.2-11.6,20.5c1.3-1.7,2.6-3.4,3.9-5.1c-8.1,10.4-18.3,19-26.4,29.3c-3.2,4-6.4,8-9,12.5
			c-2.6,4.5-4.6,9.3-6.5,14.1c-3.1,8-4.4,16.7-5,25.2c-0.6,8.6,0.5,17.4,2.3,25.7c1.8,8.1,5,16,8.9,23.4c3.8,7.2,8.8,13.8,14.1,19.9
			c5.4,6.2,11.8,11.3,18.4,16.2c5.5,4.1,11.5,7.5,17.8,10.4c6.1,2.7,12.3,5.2,17.7,9.2c-1.7-1.3-3.4-2.6-5.1-3.9
			c1.8,1.4,3.5,3,4.9,4.8c-1.3-1.7-2.6-3.4-3.9-5.1c1.1,1.5,2,3.1,2.8,4.8c-0.8-2-1.7-4-2.5-6c0.9,2.2,1.4,4.4,1.7,6.7
			c-0.3-2.2-0.6-4.4-0.9-6.6c1,7.5,0.2,15.3,0.1,22.8c-0.1,8.2,0,16.5,0.3,24.7c0.5,16.3,1.8,32.7,3.8,48.9c1,8.5,2.6,17.1,1.5,25.7
			c0.3-2.2,0.6-4.4,0.9-6.6c-0.4,2.6-1.1,5.2-2.1,7.7c0.8-2,1.7-4,2.5-6c-0.9,2-2,3.9-3.3,5.7c1.3-1.7,2.6-3.4,3.9-5.1
			c-1.6,2.1-3.4,3.9-5.5,5.5c1.7-1.3,3.4-2.6,5.1-3.9c-2.6,2-5.4,3.6-8.4,4.9c2-0.8,4-1.7,6-2.5c-3.4,1.4-7,2.4-10.6,2.9
			c2.2-0.3,4.4-0.6,6.6-0.9c-5.4,0.7-10.7,0.5-16.1-0.2c2.2,0.3,4.4,0.6,6.6,0.9c-11-1.5-21.8-4.9-32.4-8.2
			c-10.8-3.4-21.5-7.2-32-11.3c-3.3-1-6.6-1.2-10-0.4c-3.3,0.2-6.4,1.1-9.3,3c-5.2,3-10.1,9-11.5,14.9c-1.5,6.4-1.1,13.6,2.5,19.3
			c1.3,1.7,2.6,3.4,3.9,5.1c3.1,3.1,6.8,5.2,11,6.4c10.7,4.2,21.5,8,32.4,11.4c5.6,1.7,11.1,3.4,16.8,4.9c7.2,1.9,14.5,3.2,21.9,4.1
			c7.7,1,15,0.4,22.7-0.7c6.3-0.9,11.9-3.3,17.7-5.9c5.7-2.6,11.1-6.6,15.5-11.1c6-6.1,9.7-12.8,12.6-20.8c1.6-4.3,2-9.2,2.5-13.7
			c0.3-2.7,0.4-5.3,0.2-8c-0.2-5.3-1-10.5-1.7-15.7c-1.4-11.5-2.5-23.1-3.2-34.7c-0.7-11.6-1-23.2-1-34.8c0-12.6,1.6-25.7-1.6-38.1
			c-3.9-15.5-15.9-26.8-29.9-33.5c-4.5-2.1-9.2-4-13.6-6.3c-4.6-2.4-9-5.3-13.2-8.4c1.7,1.3,3.4,2.6,5.1,3.9
			c-5.7-4.4-10.9-9.5-15.3-15.2c1.3,1.7,2.6,3.4,3.9,5.1c-3.9-5.1-7.1-10.5-9.7-16.4c0.8,2,1.7,4,2.5,6c-2.4-5.6-3.9-11.5-4.8-17.5
			c0.3,2.2,0.6,4.4,0.9,6.6c-0.8-6-0.8-12.1,0-18.1c-0.3,2.2-0.6,4.4-0.9,6.6c0.7-5.3,2.1-10.5,4.2-15.5c-0.8,2-1.7,4-2.5,6
			c2.2-5.1,5.1-9.9,8.5-14.3c-1.3,1.7-2.6,3.4-3.9,5.1c8.1-10.4,18.3-18.9,26.4-29.3c5.2-6.8,9.9-13.5,13.6-21.2
			c3.6-7.8,6.8-15.8,9.6-24c2.5-7.2,5-14.4,7.9-21.4c-0.8,2-1.7,4-2.5,6c3.1-7.2,6.7-14.1,11.4-20.3c-1.3,1.7-2.6,3.4-3.9,5.1
			c3.8-4.8,8.1-9.1,12.9-12.8c-1.7,1.3-3.4,2.6-5.1,3.9c5.3-4.1,11.1-7.4,17.3-10.1c-2,0.8-4,1.7-6,2.5c6.7-2.8,13.7-4.8,21-5.7
			c-2.2,0.3-4.4,0.6-6.6,0.9c6.8-0.9,13.7-0.9,20.5,0c-2.2-0.3-4.4-0.6-6.6-0.9c5.5,0.8,10.8,2.1,16,4.1c3.3,1,6.6,1.2,10,0.4
			c3.3-0.2,6.4-1.1,9.3-3c5.2-3,10.1-9,11.5-14.9c1.5-6.4,1.1-13.6-2.5-19.3c-1.3-1.7-2.6-3.4-3.9-5.1
			C242.9,189.3,239.3,187.2,235,186L235,186z"/>
	</g>
</g>
<g>
	<path class="st1" d="M189.8,204.4c-22.8,1.3-43.1,15-59.4,31.1s-29.7,34.8-46.6,50.2c-8.4,7.7-17.7,14.5-24.9,23.3
		c-22.7,28-19.4,68.8-9.5,103.5c2.8,9.8,6,19.6,6.3,29.8c0.6,17.7-7.5,34.4-13.1,51.3c-9.9,30-12.1,62-14.2,93.5
		c-0.1,1.6-0.2,3.4,0.7,4.8c1,1.6,3.1,2.2,5,2.7c18.3,4.5,37.5,5.8,56.3,4c8.5-0.8,18-3,22.6-10.2c4.2-6.6,2.8-15.2,1.2-22.8
		c-7.5-35.4-17.4-70.4-29.5-104.5c-0.7,8.1-5.4,15.2-9.2,22.4c-17.9,34-14.6,78.1,8.2,109c-15.2,10.1-36-3.6-53.5,1.6
		c0.5,2.5-0.1,5.2-1.6,7.3c-4.1-12.7,0.4-26.3,4.2-39c14.9-50.3,18.5-104,10.3-155.9"/>
	<g>
		<path d="M189.8,179.4c-6.9,0.4-13.9,1.4-20.5,3.2c-6.6,1.8-13,4.6-19.1,7.5c-10.7,5.2-20.3,12.5-29.3,20.2
			c-16.2,13.9-29,31.2-43.5,46.7c-7.4,7.8-15.4,14.7-23.5,21.8c-8.9,7.8-17,16.7-22.8,27.1c-11,19.4-15,42.3-13.9,64.4
			c0.6,12.6,2.5,25.2,5.4,37.5c2.7,11.8,7.1,23.2,8.7,35.2c-0.3-2.2-0.6-4.4-0.9-6.6c0.7,5.3,0.7,10.6,0,15.9
			c0.3-2.2,0.6-4.4,0.9-6.6c-1.6,12.1-6.2,23.4-10.3,34.8c-4.2,11.8-7.4,23.8-9.7,36.1c-2.6,14.3-4.3,28.8-5.6,43.3
			c-0.6,6.3-1,12.7-1.4,19c-0.2,3-0.5,6.1-0.6,9.1c-0.1,1.7,0.2,3.2,0.5,4.9c0.2,1.6,0.3,3.3,0.8,4.8c0.7,2.3,1.8,5,3.1,7
			c1.3,2.1,3,4.4,4.9,6c4.2,3.6,7.9,5.7,13.1,7.4c1.5,0.5,3.1,0.8,4.6,1.2c3.1,0.7,6.2,1.3,9.3,1.8c8.2,1.4,16.4,2.4,24.7,2.9
			c6.4,0.4,12.8,0.4,19.3,0c7.3-0.4,14.9-1,22-2.8c4.3-1.1,8.5-2.9,12.4-4.8c1-0.5,2-1.1,2.9-1.7c2.5-1.8,5.2-3.7,7.4-5.9
			c8.1-8,11.8-18.7,12.3-29.9c0.2-4.7-0.7-9.4-1.3-14c-0.4-2.8-1-5.5-1.6-8.3c-1.4-6.4-2.8-12.7-4.3-19c-6-25.1-13.2-49.8-21.5-74.2
			c-1-3-2.1-6-3.1-9c-2.1-5.9-5.7-11.9-11.5-14.9c-2-0.8-4-1.7-6-2.5c-3.3-1-6.6-1.2-10-0.4c-2.3,0-4.4,0.6-6.3,1.7
			c-3.1,1-5.8,2.7-8,5.2c-1.3,1.7-2.6,3.4-3.9,5.1c-2.3,3.9-3.4,8.1-3.4,12.6c0,0.4-0.1,0.9-0.1,1.3c0.3-2.2,0.6-4.4,0.9-6.6
			c-0.4,2.9-1.3,5.6-2.5,8.3c0.8-2,1.7-4,2.5-6c-1.9,4.4-4.4,8.5-6.6,12.7c-2.9,5.5-5.3,11.3-7.5,17.1c-3.7,9.8-5.4,20-6.6,30.4
			c-1,8.5-1,17.2,0,25.7c1.3,10.4,3,20.5,6.6,30.4c4,10.9,8.9,21.4,15.8,30.7c3-11.4,6-22.8,9-34.2c-1.1,0.7-2.2,1.3-3.4,1.9
			c2-0.8,4-1.7,6-2.5c-2,0.8-4.1,1.4-6.3,1.7c2.2-0.3,4.4-0.6,6.6-0.9c-4.1,0.5-8.3,0.2-12.4-0.3c2.2,0.3,4.4,0.6,6.6,0.9
			c-7.5-1-15-2.5-22.5-3.3c-7.3-0.8-15-0.3-22.1,1.7c-5.8,1.6-12.1,6.1-14.9,11.5c-0.8,2-1.7,4-2.5,6c-1.2,4.4-1.2,8.9,0,13.3
			c0,0.2,0.1,0.4,0.1,0.6c-0.3-2.2-0.6-4.4-0.9-6.6c0.1,0.9,0.1,1.7-0.1,2.6c0.3-2.2,0.6-4.4,0.9-6.6c-0.2,0.9-0.4,1.6-0.7,2.5
			c0.8-2,1.7-4,2.5-6c-0.3,0.6-0.6,1.1-1,1.7c15.2,2,30.5,4,45.7,6c-0.6-1.8-1-3.7-1.3-5.6c0.3,2.2,0.6,4.4,0.9,6.6
			c-0.5-4-0.4-8.1,0.2-12.1c-0.3,2.2-0.6,4.4-0.9,6.6c1.7-11.7,6-22.9,8.9-34.3c2.9-11.3,5.2-22.8,7-34.4
			c3.9-25.4,5.8-50.9,4.6-76.6c-0.7-15.2-2.5-30.3-4.8-45.3c-0.8-3.3-2.3-6.1-4.5-8.5c-1.8-2.7-4.1-4.9-7-6.4
			c-5.4-3.1-13.3-4.5-19.3-2.5c-6,2-11.9,5.7-14.9,11.5c-0.8,2-1.7,4-2.5,6c-1.2,4.4-1.2,8.9,0,13.3c0.4,2.7,0.8,5.4,1.2,8.1
			c-0.3-2.2-0.6-4.4-0.9-6.6c4.1,31.4,4.1,63.2-0.1,94.5c0.3-2.2,0.6-4.4,0.9-6.6c-1.7,12.5-4,24.8-7,37c-1.5,6.1-3.2,12.2-5,18.3
			c-1.8,5.9-3.5,11.8-4.5,17.8C2,586.5,1.3,597.2,4.6,608c1.2,4,3.5,8.1,6.4,11c1.7,1.3,3.4,2.6,5.1,3.9c2.9,1.8,6,2.8,9.3,3
			c2.2,0.6,4.4,0.6,6.6,0c2.3,0,4.4-0.6,6.3-1.7c2.1-0.6,4-1.7,5.5-3.2c2.7-1.8,4.9-4.1,6.4-7c2-2.9,3.4-6.3,4.1-9.8
			c1.5-6.7,1-10,0-16.8c-5.8,10.3-11.6,20.5-17.5,30.8c1.5-0.4,3-0.7,4.5-0.9c-2.2,0.3-4.4,0.6-6.6,0.9c4.3-0.5,8.5-0.2,12.8,0.3
			c-2.2-0.3-4.4-0.6-6.6-0.9c8.6,1.2,17.2,3.1,25.9,3.6c5.1,0.3,10.2-0.4,15.2-1.3c1.5-0.3,3-0.7,4.4-1.3c3.4-1.3,6.9-2.6,9.9-4.6
			c5.2-3.3,10.1-8.7,11.5-14.9c1.4-6.2,1.4-13.9-2.5-19.3c-4.6-6.3-8.4-13-11.5-20.2c0.8,2,1.7,4,2.5,6c-3.6-8.7-6.1-17.8-7.3-27.1
			c0.3,2.2,0.6,4.4,0.9,6.6c-1.2-9.5-1.2-19.2,0-28.7c-0.3,2.2-0.6,4.4-0.9,6.6c1.2-8.9,3.6-17.6,7.1-25.9c-0.8,2-1.7,4-2.5,6
			c2.2-5.1,4.9-9.8,7.5-14.7c2.2-4.2,4.1-8.6,5.8-13c1.7-4.6,2.3-9.5,2.7-14.4c-16.4,2.2-32.7,4.4-49.1,6.6
			c10.1,28.5,18.6,57.5,25.5,87c1.9,7.9,3.9,15.9,5.1,23.9c-0.3-2.2-0.6-4.4-0.9-6.6c0.4,3,0.6,5.9,0.2,8.9c0.3-2.2,0.6-4.4,0.9-6.6
			c-0.3,1.9-0.7,3.6-1.4,5.4c0.8-2,1.7-4,2.5-6c-0.6,1.3-1.3,2.5-2.2,3.6c1.3-1.7,2.6-3.4,3.9-5.1c-0.8,1-1.7,1.9-2.7,2.7
			c1.7-1.3,3.4-2.6,5.1-3.9c-1.6,1.3-3.4,2.3-5.3,3.1c2-0.8,4-1.7,6-2.5c-3.4,1.4-7,2.2-10.7,2.7c2.2-0.3,4.4-0.6,6.6-0.9
			c-13.7,1.8-27.7,1.5-41.3-0.3c2.2,0.3,4.4,0.6,6.6,0.9c-3.5-0.5-7-1-10.4-1.7c-3.2-0.6-6.6-1.2-9.6-2.3c2,0.8,4,1.7,6,2.5
			c-0.5-0.2-1-0.5-1.5-0.8c1.7,1.3,3.4,2.6,5.1,3.9c-0.3-0.2-0.6-0.5-0.8-0.8c1.3,1.7,2.6,3.4,3.9,5.1c-0.3-0.3-0.5-0.6-0.6-1
			c0.8,2,1.7,4,2.5,6c-0.2-0.6-0.3-1.1-0.4-1.8c0.3,2.2,0.6,4.4,0.9,6.6c-0.2-4.1,0.4-8.4,0.7-12.6c0.3-4.4,0.6-8.7,1-13.1
			c0.7-8.7,1.6-17.4,2.7-26c-0.3,2.2-0.6,4.4-0.9,6.6c1.5-10.8,3.4-21.6,6.2-32.2C66,502,69.9,492,73.4,481.8
			c4.1-11.8,7.2-24.1,7.4-36.6c0.2-12.9-3.3-25.5-6.8-37.8c-2.9-10.1-5.2-20.3-6.6-30.6c0.3,2.2,0.6,4.4,0.9,6.6
			c-1.5-11.6-1.9-23.4-0.4-35c-0.3,2.2-0.6,4.4-0.9,6.6c1.1-7.7,3-15.2,6-22.4c-0.8,2-1.7,4-2.5,6c2.4-5.5,5.4-10.7,9-15.4
			c-1.3,1.7-2.6,3.4-3.9,5.1c4.9-6.3,10.8-11.6,16.8-16.8c6.2-5.3,12.2-10.6,17.9-16.5c11.3-11.6,21.3-24.4,32.4-36.1
			c6-6.3,12.3-12.3,19.2-17.7c-1.7,1.3-3.4,2.6-5.1,3.9c7-5.4,14.6-10.1,22.8-13.6c-2,0.8-4,1.7-6,2.5c5.7-2.4,11.7-4.1,17.8-5
			c-2.2,0.3-4.4,0.6-6.6,0.9c1.7-0.2,3.4-0.4,5.1-0.5c6.7-0.4,12.9-2.5,17.7-7.3c4.3-4.3,7.6-11.5,7.3-17.7
			c-0.3-6.5-2.4-13.2-7.3-17.7C202.8,182.4,196.4,179,189.8,179.4L189.8,179.4z"/>
	</g>
</g>
<g>
	<path class="st1" d="M127.4,527.5c2.9-7.7,0.8-17-5.1-22.7"/>
	<g>
		<path d="M151.5,534.1c1.4-4,1.9-8.4,2.1-12.6c0.1-1.1,0-2.2-0.1-3.4c-0.3-3.2-0.6-6.4-1.3-9.5c-0.9-4.1-2.7-8-4.6-11.6
			c-0.5-0.9-1.1-1.8-1.7-2.7c-1.8-2.4-3.7-5.1-5.9-7.3c-2.3-2.4-4.9-4.2-8-5.2c-3-1.6-6.2-2.3-9.6-2.2c-3.4-0.1-6.7,0.6-9.6,2.2
			c-3.1,1-5.8,2.7-8,5.2c-1.3,1.7-2.6,3.4-3.9,5.1c-2.3,3.9-3.4,8.1-3.4,12.6c0.3,2.2,0.6,4.4,0.9,6.6c1.2,4.2,3.3,7.9,6.4,11
			c0.6,0.6,1.2,1.3,1.8,2c-1.3-1.7-2.6-3.4-3.9-5.1c1.2,1.5,2.1,3.2,2.9,4.9c-0.8-2-1.7-4-2.5-6c0.7,1.8,1.2,3.6,1.5,5.5
			c-0.3-2.2-0.6-4.4-0.9-6.6c0.3,2,0.3,4,0,6c0.3-2.2,0.6-4.4,0.9-6.6c-0.2,1.4-0.6,2.9-1.1,4.2c-1,3.3-1.2,6.6-0.4,10
			c0.2,3.3,1.1,6.4,3,9.3c1.6,2.9,3.7,5.3,6.4,7c2.4,2.2,5.2,3.7,8.5,4.5c2.2,0.3,4.4,0.6,6.6,0.9c4.5,0,8.7-1.2,12.6-3.4
			c1.7-1.3,3.4-2.6,5.1-3.9C148.2,542,150.3,538.3,151.5,534.1L151.5,534.1z"/>
	</g>
</g>
<g>
	<path class="st1" d="M155.1,470.5c37.3,7.4,70,35,83.5,70.5c3.7,9.6,6,20.3,3.1,30.1c-4.4,14.8-19.3,23.7-33.5,29.8
		c-22.2,9.5-45.8,15.6-69.8,18.1c16.3-11.1,32.5-22.2,48.8-33.4c4.9-3.3,9.9-6.9,12.8-12c3.3-6,3.2-13.4,1.3-20
		c-5.7-19.7-24.6-32.1-42.2-42.6c-3.4,29.7-4.4,59.6-2.9,89.5"/>
	<g>
		<path d="M148.5,494.6c7.2,1.5,14.3,3.6,21,6.5c-2-0.8-4-1.7-6-2.5c9.1,3.9,17.8,8.9,25.6,15c-1.7-1.3-3.4-2.6-5.1-3.9
			c7.9,6.1,14.9,13.1,21,21c-1.3-1.7-2.6-3.4-3.9-5.1c5.8,7.6,10.7,15.8,14.5,24.6c-0.8-2-1.7-4-2.5-6c2.5,5.9,4.5,12,5.4,18.4
			c-0.3-2.2-0.6-4.4-0.9-6.6c0.4,3.4,0.5,6.9,0.1,10.3c0.3-2.2,0.6-4.4,0.9-6.6c-0.4,2.7-1.1,5.4-2.1,7.9c0.8-2,1.7-4,2.5-6
			c-1.2,2.7-2.7,5.3-4.5,7.6c1.3-1.7,2.6-3.4,3.9-5.1c-2.4,3-5.2,5.7-8.2,8.1c1.7-1.3,3.4-2.6,5.1-3.9c-6.3,4.8-13.3,8.4-20.6,11.4
			c2-0.8,4-1.7,6-2.5c-15.3,6.4-31.2,11.3-47.5,14.5c-4.7,0.9-9.3,1.7-14,2.3c2.2-0.3,4.4-0.6,6.6-0.9c-2.5,0.3-4.9,0.6-7.4,0.9
			c4.2,15.5,8.4,31.1,12.6,46.6c10.3-7,20.5-14,30.8-21c5.2-3.6,10.4-7.1,15.6-10.7c2.2-1.5,4.5-3,6.6-4.6c3.5-2.6,7.3-5.3,10.4-8.5
			c2.2-2.3,4.1-4.9,5.9-7.5c0.8-1.1,1.5-2.3,2-3.5c1.3-2.9,2.8-6,3.6-9.1c0.9-3.4,1.2-6.9,1.6-10.3c0.5-4.7-0.4-9.6-1.2-14.2
			c-0.4-2.4-1.1-4.8-1.9-7.1c-2.3-6.2-4.9-12.3-8.8-17.6c-3.9-5.4-8-10.5-13-15c-9.4-8.5-20.1-15.5-30.9-22.1
			c-7.6-4.6-17.6-4.5-25.2,0c-3.8,2.2-6.7,5.2-9,9c-2.3,3.9-3.4,8.1-3.4,12.6c-2.7,23.1-3.8,46.4-3.5,69.7
			c0.1,6.6,0.3,13.2,0.6,19.8c-0.1,3.4,0.6,6.7,2.2,9.6c1,3.1,2.7,5.8,5.2,8c2.3,2.4,4.9,4.2,8,5.2c3,1.6,6.2,2.3,9.6,2.2
			c2.2-0.3,4.4-0.6,6.6-0.9c4.2-1.2,7.9-3.3,11-6.4c4.4-4.8,7.7-11,7.3-17.7c-1.1-23.2-0.8-46.6,1-69.8c0.5-6.6,1.2-13.2,1.9-19.7
			c-12.5,7.2-25.1,14.4-37.6,21.6c6.8,4.1,13.6,8.3,19.9,13.2c-1.7-1.3-3.4-2.6-5.1-3.9c5.2,4,10.1,8.5,14.1,13.7
			c-1.3-1.7-2.6-3.4-3.9-5.1c2.6,3.4,4.8,7,6.5,10.9c-0.8-2-1.7-4-2.5-6c1.3,3.2,2.3,6.4,2.8,9.8c-0.3-2.2-0.6-4.4-0.9-6.6
			c0.3,2.5,0.4,5,0.1,7.6c0.3-2.2,0.6-4.4,0.9-6.6c-0.3,1.9-0.8,3.8-1.5,5.6c0.8-2,1.7-4,2.5-6c-0.7,1.6-1.6,3.1-2.7,4.5
			c1.3-1.7,2.6-3.4,3.9-5.1c-1.8,2.2-3.9,4.1-6.1,5.8c1.7-1.3,3.4-2.6,5.1-3.9c-6.5,4.9-13.4,9.3-20.1,13.9
			c-7.2,4.9-14.4,9.8-21.5,14.7c-4,2.8-8.1,5.5-12.1,8.3c-1.7,1.3-3.4,2.6-5.1,3.9c-2.4,2.3-4.2,4.9-5.2,8c-1.1,1.9-1.7,4.1-1.7,6.3
			c-0.7,3.3-0.6,6.6,0.4,10c0.8,2,1.7,4,2.5,6c1.3,1.7,2.6,3.4,3.9,5.1c2.3,2.4,4.9,4.2,8,5.2c3,1.6,6.2,2.3,9.6,2.2
			c22.4-2.3,44.4-6.8,65.6-14.6c6.5-2.4,12.9-5,19.2-7.9c3.7-1.7,7.3-3.5,10.8-5.6c5.1-3.1,10-6.7,14.5-10.7
			c1.5-1.3,2.9-2.7,4.2-4.2c2.6-3,5.1-6.1,7.2-9.5c2.1-3.4,3.6-7.2,5-10.9c0.8-2.1,1.5-4.2,1.8-6.4c0.8-4.4,1.5-8.9,1.4-13.3
			c-0.1-4.6-0.8-9.1-1.6-13.6c-0.8-4.8-2.3-9.5-4.1-14c-2.2-5.6-4.6-11.3-7.4-16.7c-4.7-8.9-10.7-17-17.1-24.7
			c-5.1-6.2-10.9-11.8-17.2-16.8c-7.9-6.2-15.9-12-24.8-16.6c-9-4.5-18.5-8.4-28.3-10.9c-1.9-0.5-3.8-0.9-5.7-1.3
			c-3.3-1-6.6-1.2-10-0.4c-3.3,0.2-6.4,1.1-9.3,3c-2.9,1.6-5.3,3.7-7,6.4c-2.2,2.4-3.7,5.2-4.5,8.5c-0.3,2.2-0.6,4.4-0.9,6.6
			c0,4.5,1.2,8.7,3.4,12.6c1.3,1.7,2.6,3.4,3.9,5.1C140.5,491.2,144.2,493.4,148.5,494.6L148.5,494.6z"/>
	</g>
</g>
<g>
	<path class="st1" d="M175.6,203.3c-27.5,3.6-55.1,12-76.2,30c-9.7,8.3-17.8,18.3-25.2,28.7c-24.3,34.2-42.1,75-39.7,116.9
		c1.4,24.8,9.7,48.7,18,72.1"/>
	<g>
		<path d="M175.6,178.3c-12.2,1.6-24.3,3.5-36.2,6.9c-4.8,1.4-9.6,3-14.3,4.9c-6.5,2.6-13,5.3-19.2,8.7c-4.5,2.4-8.8,5.1-12.9,8
			c-5.8,4.2-11.4,8.6-16.6,13.6c-9.1,8.8-16.8,19-24.1,29.3c-13.3,18.8-24,39.2-32,60.8c-3.6,9.7-6.3,19.7-8.1,29.9
			c-2.1,12.3-3.5,24.8-2.9,37.2c1.2,24.9,8,48.7,16.2,72.1c0.9,2.7,1.9,5.4,2.8,8c0.8,3.3,2.3,6.1,4.5,8.5c1.8,2.7,4.1,4.9,7,6.4
			c2.9,1.8,6,2.8,9.3,3c3.3,0.7,6.6,0.6,10-0.4c2-0.8,4-1.7,6-2.5c3.8-2.2,6.7-5.2,9-9c0.8-2,1.7-4,2.5-6c1.2-4.4,1.2-8.9,0-13.3
			c-5.5-15.6-11-31.3-14.5-47.5c-1-4.6-1.8-9.2-2.5-13.9c0.3,2.2,0.6,4.4,0.9,6.6c-1.6-12.3-1.6-24.7,0-36.9
			c-0.3,2.2-0.6,4.4-0.9,6.6c2.1-15.3,6.4-30.1,12.4-44.3c-0.8,2-1.7,4-2.5,6c6.4-15.2,14.6-29.6,23.9-43.1
			c2.7-3.9,5.5-7.8,8.4-11.6c-1.3,1.7-2.6,3.4-3.9,5.1c6.7-8.6,14-16.7,22.7-23.3c-1.7,1.3-3.4,2.6-5.1,3.9
			c8.1-6.2,17-11.2,26.3-15.2c-2,0.8-4,1.7-6,2.5c14.5-6.1,29.9-9.7,45.5-11.8c-2.2,0.3-4.4,0.6-6.6,0.9c0.3,0,0.6-0.1,0.8-0.1
			c3.4,0.1,6.7-0.6,9.6-2.2c3.1-1,5.8-2.7,8-5.2c2.4-2.3,4.2-4.9,5.2-8c1.6-3,2.3-6.2,2.2-9.6c-0.3-2.2-0.6-4.4-0.9-6.6
			c-1.2-4.2-3.3-7.9-6.4-11c-1.7-1.3-3.4-2.6-5.1-3.9C184.3,179.5,180.1,178.3,175.6,178.3L175.6,178.3z"/>
	</g>
</g>
<g>
	<path class="st1" d="M543.3,578.4c18,17.2,34.7,35.8,49.9,55.6c4.3,5.6,8.5,11.3,12.5,17"/>
	<g>
		<path d="M541.6,580.1c17.8,17,34.3,35.2,49.2,54.7c4.4,5.7,8.7,11.5,12.8,17.4c0.8,1.1,2.2,1.6,3.4,0.9c1.1-0.6,1.7-2.3,0.9-3.4
			c-14.5-20.6-30.5-40.2-48-58.4c-4.8-5-9.8-9.9-14.8-14.8C542.8,574.4,539.2,577.9,541.6,580.1L541.6,580.1z"/>
	</g>
</g>
<g>
	<path class="st1" d="M535.3,239.8c25.4-2.6,48.7-16,74.1-19"/>
	<g>
		<path d="M535.3,242.3c20.1-2.1,38.5-10.5,57.8-15.7c5.3-1.4,10.7-2.6,16.2-3.3c1.3-0.2,2.5-1,2.5-2.5c0-1.2-1.2-2.7-2.5-2.5
			c-20,2.4-38.4,10.9-57.8,16c-5.3,1.4-10.8,2.5-16.2,3.1c-1.3,0.1-2.5,1-2.5,2.5C532.8,241,534,242.4,535.3,242.3L535.3,242.3z"/>
	</g>
</g>
<g>
	<path class="st1" d="M471.7,597.3c18.6,36.7,37.5,73.8,64,105.4c8.9,10.7,18.7,20.6,27,31.8"/>
	<g>
		<path d="M469.5,598.6c9.7,19.1,19.4,38.1,30.2,56.6c10.8,18.5,22.9,36.2,36.9,52.5c8,9.3,16.5,18.2,23.9,28.1
			c0.8,1.1,2.2,1.6,3.4,0.9c1.1-0.6,1.7-2.3,0.9-3.4c-6.6-8.9-14-17-21.3-25.3c-7.1-8-13.8-16.3-20-25
			c-12.4-17.4-23.1-35.9-33.1-54.7c-5.7-10.6-11.1-21.4-16.6-32.1C472.4,593.2,468.1,595.7,469.5,598.6L469.5,598.6z"/>
	</g>
</g>
<g>
	<path class="st1" d="M524.7,313.8c27.8-9.1,54.7-20.7,80.4-34.6"/>
	<g>
		<path d="M525.4,316.2c21.8-7.1,43.1-15.8,63.7-25.9c5.8-2.9,11.6-5.8,17.3-8.9c2.8-1.5,0.3-5.9-2.5-4.3
			c-19.9,10.8-40.5,20.2-61.7,28c-6,2.2-12.1,4.3-18.1,6.3C521,312.4,522.3,317.2,525.4,316.2L525.4,316.2z"/>
	</g>
</g>
<g>
	<path class="st1" d="M59.4,237c-10.2-7.8-20.3-15.7-30.5-23.5c6-2.3,12.3-4.7,16.7-9.5s6.2-12.5,2.3-17.7c6.7,4.6,16,4.9,23.1,0.9
		s11.4-12.3,10.7-20.4c7.2,11.9,18.2,21.5,31,27"/>
	<g>
		<path d="M60.7,234.9c-10.2-7.8-20.3-15.7-30.5-23.5c-0.2,1.5-0.4,3-0.6,4.6c6.9-2.6,14.3-5.4,18.9-11.5c4.1-5.4,5.8-13.5,1.5-19.3
			c-1.1,1.1-2.3,2.3-3.4,3.4c6,4,13.7,5.1,20.6,3c6.6-2,12.1-6.9,14.9-13.2c1.6-3.6,2.4-7.5,2.1-11.5c-1.6,0.4-3.1,0.8-4.7,1.3
			c7.5,12.3,18.7,22.2,31.9,27.9c1.2,0.5,2.7,0.4,3.4-0.9c0.6-1.1,0.3-2.9-0.9-3.4c-12.4-5.4-23-14.5-30.1-26.1
			c-1.2-2-4.8-1.3-4.7,1.3c0.5,7.1-2.9,14.2-9,18c-6.4,4-14.8,3.6-21-0.6c-2-1.3-4.9,1.4-3.4,3.4c3.2,4.3,1.8,10.4-1.5,14.2
			c-4.1,4.8-10.2,7.1-15.9,9.2c-2.1,0.8-2.3,3.2-0.6,4.6c10.2,7.8,20.3,15.7,30.5,23.5c1.1,0.8,2.8,0.2,3.4-0.9
			C62.3,237,61.7,235.7,60.7,234.9L60.7,234.9z"/>
	</g>
</g>
</svg>
